<?xml version="1.0" standalone="yes"?>

<svg version="1.1" viewBox="0.0 0.0 365.254593175853 354.59055118110234" fill="none" stroke="none" stroke-linecap="square" stroke-miterlimit="10" xmlns="http://www.w3.org/2000/svg" xmlns:xlink="http://www.w3.org/1999/xlink"><clipPath id="p.0"><path d="m0 0l365.2546 0l0 354.59055l-365.2546 0l0 -354.59055z" clip-rule="nonzero"></path></clipPath><g clip-path="url(#p.0)"><path fill="#000000" fill-opacity="0.0" d="m0 0l365.2546 0l0 354.59055l-365.2546 0z" fill-rule="nonzero"></path><path fill="#000000" fill-opacity="0.0" d="m21.023623 178.04199l0 0c0 -87.443634 72.69909 -158.3307 162.37796 -158.3307l0 0c43.065308 0 84.36676 16.681223 114.81854 46.373985c30.451782 29.692772 47.559418 69.964806 47.559418 111.95672l0 0c0 87.443634 -72.6991 158.33072 -162.37796 158.33072l0 0c-89.67887 0 -162.37796 -70.887085 -162.37796 -158.33072z" fill-rule="nonzero"></path><path stroke="#b30000" stroke-width="24.0" stroke-linejoin="round" stroke-linecap="butt" d="m21.023623 178.04199l0 0c0 -87.443634 72.69909 -158.3307 162.37796 -158.3307l0 0c43.065308 0 84.36676 16.681223 114.81854 46.373985c30.451782 29.692772 47.559418 69.964806 47.559418 111.95672l0 0c0 87.443634 -72.6991 158.33072 -162.37796 158.33072l0 0c-89.67887 0 -162.37796 -70.887085 -162.37796 -158.33072z" fill-rule="nonzero"></path><path fill="#b30000" d="m88.61463 178.67702l110.86614 -107.11811l-1.6121216 39.925034l-70.23452 67.86013l64.78736 67.04204l-1.5391388 38.117676z" fill-rule="nonzero"></path></g></svg>

