<?xml version="1.0" standalone="yes"?>

<svg version="1.1" viewBox="0.0 0.0 601.7086614173228 597.6535433070866" fill="none" stroke="none" stroke-linecap="square" stroke-miterlimit="10" xmlns="http://www.w3.org/2000/svg" xmlns:xlink="http://www.w3.org/1999/xlink"><clipPath id="p.0"><path d="m0 0l601.7087 0l0 597.65356l-601.7087 0l0 -597.65356z" clip-rule="nonzero"></path></clipPath><g clip-path="url(#p.0)"><path fill="#000000" fill-opacity="0.0" d="m0 0l601.7087 0l0 597.65356l-601.7087 0z" fill-rule="nonzero"></path><path fill="#b30000" d="m15.419948 121.073494l0 0c0 -51.726326 41.93247 -93.6588 93.6588 -93.6588l389.5013 0l0 0c24.839874 0 48.662323 9.867594 66.226776 27.432024c17.564453 17.564434 27.432007 41.386913 27.432007 66.226776l0 374.63516c0 51.72635 -41.932434 93.65878 -93.65878 93.65878l-389.5013 0c-51.726326 0 -93.6588 -41.932434 -93.6588 -93.65878z" fill-rule="nonzero"></path><path stroke="#b30000" stroke-width="1.0" stroke-linejoin="round" stroke-linecap="butt" d="m15.419948 121.073494l0 0c0 -51.726326 41.93247 -93.6588 93.6588 -93.6588l389.5013 0l0 0c24.839874 0 48.662323 9.867594 66.226776 27.432024c17.564453 17.564434 27.432007 41.386913 27.432007 66.226776l0 374.63516c0 51.72635 -41.932434 93.65878 -93.65878 93.65878l-389.5013 0c-51.726326 0 -93.6588 -41.932434 -93.6588 -93.65878z" fill-rule="nonzero"></path><path fill="#000000" fill-opacity="0.0" d="m88.632545 423.89108l430.3937 0l0 107.46457l-430.3937 0z" fill-rule="nonzero"></path><path fill="#ffffff" d="m144.99136 518.42334l0 -80.890594l24.4375 0l14.6875 55.171875l14.5 -55.171875l24.5 0l0 80.890594l-15.171875 0l0 -63.671844l-16.046875 63.671844l-15.734375 0l-16.0 -63.671844l0 63.671844l-15.171875 0zm94.62196 0l0 -80.890594l59.98436 0l0 13.6875l-43.656235 0l0 17.9375l40.60936 0l0 13.625l-40.60936 0l0 22.015625l45.20311 0l0 13.6249695l-61.531235 0zm75.76085 0l0 -80.890594l15.890625 0l33.109375 54.015625l0 -54.015625l15.171875 0l0 80.890594l-16.390625 0l-32.609375 -52.74997l0 52.74997l-15.171875 0zm81.56067 -80.890594l16.328125 0l0 43.8125q0 10.421875 0.609375 13.515625q1.046875 4.96875 4.984375 7.984375q3.953125 3.0 10.796875 3.0q6.953125 0 10.484375 -2.84375q3.53125 -2.84375 4.25 -6.984375q0.71875 -4.140625 0.71875 -13.734375l0 -44.75l16.328125 0l0 42.484375q0 14.5625 -1.328125 20.578125q-1.3125 6.015625 -4.875 10.15625q-3.5625 4.1405945 -9.53125 6.5937195q-5.953125 2.453125 -15.546875 2.453125q-11.59375 0 -17.578125 -2.671875q-5.984375 -2.671875 -9.46875 -6.9530945q-3.46875 -4.28125 -4.5625 -8.96875q-1.609375 -6.953125 -1.609375 -20.515625l0 -43.15625z" fill-rule="nonzero"></path><path fill="#ffffff" d="m93.467094 311.40683l0 0c0 -3.710907 3.0082703 -6.7191772 6.719162 -6.7191772l407.2861 0c1.7820129 0 3.4910583 0.70791626 4.7511597 1.9680176c1.2600708 1.2600708 1.9680176 2.9691162 1.9680176 4.7511597l0 26.876648c0 3.7108765 -3.0083008 6.7191467 -6.7191772 6.7191467l-407.2861 0l0 0c-3.7108917 0 -6.719162 -3.0082703 -6.719162 -6.7191467z" fill-rule="nonzero"></path><path stroke="#ffffff" stroke-width="1.0" stroke-linejoin="round" stroke-linecap="butt" d="m93.467094 311.40683l0 0c0 -3.710907 3.0082703 -6.7191772 6.719162 -6.7191772l407.2861 0c1.7820129 0 3.4910583 0.70791626 4.7511597 1.9680176c1.2600708 1.2600708 1.9680176 2.9691162 1.9680176 4.7511597l0 26.876648c0 3.7108765 -3.0083008 6.7191467 -6.7191772 6.7191467l-407.2861 0l0 0c-3.7108917 0 -6.719162 -3.0082703 -6.719162 -6.7191467z" fill-rule="nonzero"></path><path fill="#ffffff" d="m90.492035 233.64568l0 0c0 -3.7108917 3.0082703 -6.719162 6.7191544 -6.719162l407.2861 0c1.7820435 0 3.4910583 0.707901 4.7511597 1.9679871c1.2601013 1.260086 1.9679871 2.9691315 1.9679871 4.751175l0 26.876633c0 3.7108765 -3.0082703 6.7191467 -6.7191467 6.7191467l-407.2861 0l0 0c-3.710884 0 -6.7191544 -3.0082703 -6.7191544 -6.7191467z" fill-rule="nonzero"></path><path stroke="#ffffff" stroke-width="1.0" stroke-linejoin="round" stroke-linecap="butt" d="m90.492035 233.64568l0 0c0 -3.7108917 3.0082703 -6.719162 6.7191544 -6.719162l407.2861 0c1.7820435 0 3.4910583 0.707901 4.7511597 1.9679871c1.2601013 1.260086 1.9679871 2.9691315 1.9679871 4.751175l0 26.876633c0 3.7108765 -3.0082703 6.7191467 -6.7191467 6.7191467l-407.2861 0l0 0c-3.710884 0 -6.7191544 -3.0082703 -6.7191544 -6.7191467z" fill-rule="nonzero"></path><path fill="#ffffff" d="m93.46841 155.88452l0 0c0 -3.7108917 3.0082703 -6.719162 6.719162 -6.719162l407.2861 0c1.7820129 0 3.4910583 0.707901 4.751129 1.9679871c1.2601318 1.260086 1.9680176 2.9691315 1.9680176 4.751175l0 26.876633c0 3.7108917 -3.0082703 6.719162 -6.7191467 6.719162l-407.2861 0l0 0c-3.7108917 0 -6.719162 -3.0082703 -6.719162 -6.719162z" fill-rule="nonzero"></path><path stroke="#ffffff" stroke-width="1.0" stroke-linejoin="round" stroke-linecap="butt" d="m93.46841 155.88452l0 0c0 -3.7108917 3.0082703 -6.719162 6.719162 -6.719162l407.2861 0c1.7820129 0 3.4910583 0.707901 4.751129 1.9679871c1.2601318 1.260086 1.9680176 2.9691315 1.9680176 4.751175l0 26.876633c0 3.7108917 -3.0082703 6.719162 -6.7191467 6.719162l-407.2861 0l0 0c-3.7108917 0 -6.719162 -3.0082703 -6.719162 -6.719162z" fill-rule="nonzero"></path></g></svg>

